<svg width="67" height="37" viewBox="0 0 67 37" fill="none" xmlns="http://www.w3.org/2000/svg">
<path opacity="0.2" fill-rule="evenodd" clip-rule="evenodd" d="M64.178 26.4196C62.0794 33.2903 44.1225 35.3624 36.0954 29.6566C34.9053 28.8092 34.9639 28.7575 37.2447 28.72C44.5456 28.5669 50.0294 26.7678 50.9753 24.2167C52.1403 21.0303 49.1278 17.7356 44.9262 17.5708C37.9829 17.3042 32.6912 20.2338 32.1841 24.6074L32.0641 25.6494L30.1433 25.447C25.2048 24.9187 19.5936 22.7741 17.7232 20.6553L17.2975 20.1731C24.3103 19.9883 37.41 19.188 35.6235 12.393C33.4119 3.99736 15.1063 7.23541 14.4705 16.1167L14.3788 17.3677C14.3513 17.366 1.11079 15.3265 2.33975 10.0036C3.05943 6.87222 8.2601 3.63307 13.8783 2.78139L14.9796 2.61523C15.2727 2.56443 15.4678 2.31423 15.4445 2.02278C15.1335 -0.744644 5.30212 1.90236 2.41171 5.52001C-2.12544 11.1894 2.91339 17.8692 13.1164 19.6782L15.0414 20.0327L15.6048 20.9654C17.9821 24.9248 24.0758 27.9694 30.8335 28.5557C32.7981 28.7195 32.8514 28.7504 33.1585 29.3633C37.8929 38.9379 64.0581 38.3295 65.9918 28.5624C66.2837 26.9787 65.0474 23.5461 64.178 26.4196ZM49.0748 22.3584C47.3137 24.2512 42.5992 25.4491 36.4718 25.6062C34.1067 25.6661 34.0405 25.6206 34.8733 24.4434C37.0545 21.3478 45.2758 19.4982 48.6541 21.3518C49.5621 21.8502 49.5493 21.8356 49.0748 22.3584ZM33.9687 13.0219C32.5577 15.7236 23.2807 18.1152 16.7611 17.4746L16.1026 17.406L16.576 16.2341C17.6973 13.5282 21.1254 11.2558 24.9279 10.733C29.4414 10.1025 34.7979 11.4578 33.9687 13.0219Z" fill="white"/>
</svg>
